<svg data-v-fde0c5aa="" xmlns="http://www.w3.org/2000/svg" viewBox="35 130 230 40" class="font"><!----><defs data-v-fde0c5aa=""><!----></defs><rect data-v-fde0c5aa="" fill="transparent" x="0" y="0" width="300px" height="300px" class="logo-background-square"></rect><defs data-v-fde0c5aa=""><linearGradient data-v-fde0c5aa="" gradientTransform="rotate(25)" id="6342e73f-60ae-4df2-8290-2c7a4c1ad12c" x1="0%" y1="0%" x2="100%" y2="0%"><stop data-v-fde0c5aa="" offset="0%" stop-color="#08C7D6" stop-opacity="1"></stop><stop data-v-fde0c5aa="" offset="100%" stop-color="#02023E" stop-opacity="1"></stop></linearGradient></defs><g data-v-fde0c5aa="" id="dfc86d1d-dffb-4e05-ac32-f7aaa2e261fc" fill="url(#6342e73f-60ae-4df2-8290-2c7a4c1ad12c)" transform="matrix(3.400834622000017,0,0,3.400834622000017,40,130.95532583301215)"><path d="M4.19 1.82L4.19 4.54L4.19 4.54Q3.99 4.77 3.60 4.89L3.60 4.89L3.60 4.89Q3.96 5.01 4.16 5.25L4.16 5.25L4.16 5.25Q4.17 5.32 4.18 5.38L4.18 5.38L4.18 5.38Q4.19 5.45 4.19 5.52L4.19 5.52L4.19 9.39L4.19 9.39Q4.19 9.86 3.86 10.18L3.86 10.18L3.86 10.18Q3.53 10.50 3.07 10.50L3.07 10.50L0 10.50L0 0.70L3.07 0.70L3.07 0.70Q3.53 0.70 3.86 1.03L3.86 1.03L3.86 1.03Q4.19 1.36 4.19 1.82L4.19 1.82ZM2.65 8.96L2.65 5.60L1.54 5.60L1.54 8.96L2.65 8.96ZM2.65 4.06L2.65 2.25L1.54 2.25L1.54 4.06L2.65 4.06ZM8.57 5.60L9.88 10.50L8.40 10.50L6.64 4.06L8.01 4.06L8.01 2.25L6.64 2.25L6.64 4.06L5.10 1.02L5.10 0.70L8.43 0.70L8.43 0.70Q8.86 0.70 9.17 0.98L9.17 0.98L9.17 0.98Q9.48 1.26 9.53 1.68L9.53 1.68L9.55 4.48L9.55 4.49L9.55 4.49Q9.55 4.91 9.26 5.23L9.26 5.23L9.26 5.23Q8.97 5.54 8.57 5.60L8.57 5.60ZM5.10 10.50L5.10 4.06L6.64 4.06L6.64 10.50L5.10 10.50ZM12.00 0.70L12.00 0.70L14.46 0.70L14.46 1.68L14.46 2.24L12.00 2.24L12.00 4.07L13.96 4.07L13.96 4.35L13.96 5.33L13.96 5.61L12.00 5.61L12.00 8.96L14.46 8.96L14.46 9.52L14.46 10.50L12.00 10.50L10.46 10.50L10.46 9.48L10.46 4.07L12.00 4.07L10.46 1.04L10.46 0.70L12.00 0.70ZM19.77 0.70L19.77 0.70L19.77 2.24L18.38 2.24L18.38 8.67L18.38 10.50L16.84 10.50L16.84 8.67L16.84 2.24L15.36 2.24L15.36 0.70L16.84 0.70L18.38 0.70L19.77 0.70ZM25.07 0.70L25.07 0.70L25.07 2.24L23.69 2.24L23.69 8.67L23.69 10.50L22.15 10.50L22.15 8.67L22.15 2.24L20.66 2.24L20.66 0.70L22.15 0.70L23.69 0.70L25.07 0.70ZM31.81 0.70L31.81 0.70L31.81 0.70Q32.21 0.77 32.48 1.08L32.48 1.08L32.48 1.08Q32.75 1.39 32.75 1.81L32.75 1.81L32.75 2.84L32.75 3.29L31.21 3.29L31.21 2.84L31.21 2.23L29.83 2.23L29.83 8.97L31.21 8.97L31.21 8.34L31.21 7.90L32.75 7.90L32.75 8.34L32.75 9.39L32.75 9.39Q32.75 9.81 32.48 10.12L32.48 10.12L32.48 10.12Q32.21 10.43 31.81 10.50L31.81 10.50L29.23 10.50L29.23 10.50Q28.83 10.43 28.56 10.12L28.56 10.12L28.56 10.12Q28.29 9.81 28.29 9.39L28.29 9.39L28.29 1.81L28.29 1.81Q28.29 1.39 28.56 1.08L28.56 1.08L28.56 1.08Q28.83 0.77 29.23 0.70L29.23 0.70L31.81 0.70ZM37.13 5.60L38.44 10.50L36.96 10.50L35.20 4.06L36.57 4.06L36.57 2.25L35.20 2.25L35.20 4.06L33.66 1.02L33.66 0.70L36.99 0.70L36.99 0.70Q37.42 0.70 37.73 0.98L37.73 0.98L37.73 0.98Q38.04 1.26 38.09 1.68L38.09 1.68L38.11 4.48L38.11 4.49L38.11 4.49Q38.11 4.91 37.82 5.23L37.82 5.23L37.82 5.23Q37.53 5.54 37.13 5.60L37.13 5.60ZM33.66 10.50L33.66 4.06L35.20 4.06L35.20 10.50L33.66 10.50ZM42.52 0.70L42.52 0.70L44.10 10.50L42.53 10.50L41.57 3.70L41.17 6.90L41.17 6.92L41.57 6.92L41.57 8.46L40.92 8.46L40.60 10.50L39.05 10.50L39.37 8.46L39.02 8.46L39.02 6.92L39.62 6.92L40.61 0.70L42.52 0.70ZM46.19 0.70L48.65 0.70L48.65 1.68L48.65 2.24L46.19 2.24L46.19 4.07L48.15 4.07L48.15 4.35L48.15 5.33L48.15 5.61L46.19 5.61L46.19 10.50L44.65 10.50L44.65 9.48L44.65 4.07L46.19 4.07L44.65 1.04L44.65 0.70L46.19 0.70ZM53.96 0.70L53.96 0.70L53.96 2.24L52.57 2.24L52.57 8.67L52.57 10.50L51.03 10.50L51.03 8.67L51.03 2.24L49.55 2.24L49.55 0.70L51.03 0.70L52.57 0.70L53.96 0.70ZM55.79 0.70L58.38 0.70L58.38 0.70Q58.77 0.77 59.04 1.08L59.04 1.08L59.04 1.08Q59.30 1.40 59.30 1.81L59.30 1.81L59.30 2.86L59.30 3.28L59.30 3.30L59.30 8.36L59.30 9.41L59.30 9.41Q59.30 9.81 59.04 10.12L59.04 10.12L59.04 10.12Q58.77 10.43 58.38 10.50L58.38 10.50L55.79 10.50L55.79 10.50Q55.40 10.43 55.13 10.12L55.13 10.12L55.13 10.12Q54.87 9.81 54.87 9.41L54.87 9.41L54.87 1.81L54.87 1.81Q54.87 1.40 55.13 1.08L55.13 1.08L55.13 1.08Q55.40 0.77 55.79 0.70L55.79 0.70ZM57.76 3.30L57.76 3.28L57.76 2.86L57.76 2.24L56.41 2.24L56.41 8.97L57.76 8.97L57.76 8.36L57.76 3.30ZM63.71 0.70L63.71 0.70L64.69 0.70L64.69 0.70L64.69 10.50L64.69 10.50L63.15 10.50L63.15 10.50L61.75 6.12L61.75 10.50L61.75 10.50L60.21 10.50L60.21 0.70L60.77 0.70L60.77 0.70L61.75 0.70L61.75 0.70L61.75 0.73L63.15 5.35L63.15 0.70L63.71 0.70L63.71 0.70Z"></path></g><!----><!----></svg>